<svg width="1200" height="420" viewBox="0 0 1200 420" fill="none" xmlns="http://www.w3.org/2000/svg">
  <defs>
    <linearGradient id="g1" x1="70" y1="70" x2="350" y2="350" gradientUnits="userSpaceOnUse">
      <stop stop-color="#16E0B3"/>
      <stop offset="1" stop-color="#2F6BFF"/>
    </linearGradient>
    <filter id="shadow" x="0" y="0" width="420" height="420" filterUnits="userSpaceOnUse">
      <feDropShadow dx="0" dy="18" stdDeviation="18" flood-color="#0B1020" flood-opacity="0.18"/>
    </filter>
  </defs>
  <rect width="1200" height="420" rx="36"/>
  <g transform="translate(28,0)">
    <rect x="36" y="36" width="348" height="348" rx="92" fill="#0F172A"/>
    <g filter="url(#shadow)">
      <path d="M289 123C266 100 232 89 198 94C153 100 120 130 118 169C116 207 142 232 188 241L244 253C272 259 286 270 285 288C284 309 261 327 232 330C202 333 174 324 154 304" stroke="url(#g1)" stroke-width="36" stroke-linecap="round"/>
      <path d="M150 297C173 320 207 331 241 326C286 320 319 290 321 251C323 213 297 188 251 179L195 167C167 161 153 150 154 132C155 111 178 93 207 90C237 87 265 96 285 116" stroke="url(#g1)" stroke-width="36" stroke-linecap="round" opacity="0.92"/>
      <circle cx="136" cy="159" r="15" fill="#16E0B3"/>
      <circle cx="300" cy="262" r="15" fill="#2F6BFF"/>
      <circle cx="176" cy="286" r="10" fill="#A7F3D0" opacity="0.95"/>
      <circle cx="261" cy="135" r="10" fill="#9CC2FF" opacity="0.95"/>
    </g>
  </g>
  <g transform="translate(450,0)">
    <text x="0" y="205" font-family="Inter, Segoe UI, Arial, sans-serif" font-size="134" font-weight="800" letter-spacing="-5" fill="#FFFF">Spool</text>
    <text x="8" y="265" font-family="Inter, Segoe UI, Arial, sans-serif" font-size="34" font-weight="500" letter-spacing="3.2" fill="#475569">EVENT-DRIVEN FRAMEWORK</text>
    <rect x="8" y="286" width="448" height="12" rx="6" fill="#E2E8F0"/>
    <rect x="8" y="286" width="262" height="12" rx="6" fill="url(#g1)"/>
  </g>
</svg>